<?xml version="1.0" encoding="utf-8"?>
<!-- Generator: Adobe Illustrator 24.0.0, SVG Export Plug-In . SVG Version: 6.00 Build 0)  -->
<svg version="1.1" id="Layer_1" xmlns="http://www.w3.org/2000/svg" xmlns:xlink="http://www.w3.org/1999/xlink" x="0px" y="0px"
	 viewBox="0 0 48 48" style="enable-background:new 0 0 48 48;" xml:space="preserve">
<style type="text/css">
	.st0{fill:#E32F36;}
	.st1{fill:#FFFFFF;}
	.st2{fill:#EC1C24;}
	.st3{fill:#404041;}
</style>
<g>
	<path class="st1" d="M33.5,9.54h8.09L32.05,0v8.09C32.05,8.93,32.74,9.54,33.5,9.54z"/>
	<path class="st1" d="M29.69,14.35c-1.37,0-2.52-1.14-2.52-2.52V0H9.31c-1.6,0-2.9,1.3-2.9,2.9v42.2c0,1.6,1.3,2.9,2.9,2.9h29.38
		c1.6,0,2.9-1.3,2.9-2.9V14.35H29.69z M28.85,39.99H14.42v-3.21h14.42V39.99z M33.65,31.97H14.42v-3.21h19.15v3.21H33.65z
		 M33.65,23.96H14.42v-3.21h19.15v3.21H33.65z"/>
</g>
</svg>
