<?xml version="1.0" encoding="utf-8"?>
<!-- Generator: Adobe Illustrator 24.0.0, SVG Export Plug-In . SVG Version: 6.00 Build 0)  -->
<svg version="1.1" id="Layer_1" xmlns="http://www.w3.org/2000/svg" xmlns:xlink="http://www.w3.org/1999/xlink" x="0px" y="0px"
	 viewBox="0 0 66 67" style="enable-background:new 0 0 66 67;" xml:space="preserve">
<style type="text/css">
	.st0{fill:#E32F36;}
	.st1{fill:#FFFFFF;}
	.st2{fill:#EC1C24;}
	.st3{fill:#404041;}
</style>
<path class="st0" d="M33.19,1C15.15,1,0.53,15.62,0.53,33.66c0,18.04,14.62,32.66,32.66,32.66s32.66-14.62,32.66-32.66
	C65.84,15.62,51.22,1,33.19,1z M44.33,35.43L29.83,49.93c-0.49,0.49-1.13,0.73-1.77,0.73s-1.28-0.24-1.77-0.73
	c-0.98-0.98-0.98-2.56,0-3.54l12.74-12.74L26.29,20.92c-0.98-0.98-0.98-2.56,0-3.54c0.98-0.98,2.56-0.98,3.54,0l14.51,14.51
	C45.31,32.86,45.31,34.45,44.33,35.43z"/>
</svg>
