<?xml version="1.0" encoding="utf-8"?>
<!-- Generator: Adobe Illustrator 24.0.0, SVG Export Plug-In . SVG Version: 6.00 Build 0)  -->
<svg version="1.1" id="Layer_1" xmlns="http://www.w3.org/2000/svg" xmlns:xlink="http://www.w3.org/1999/xlink" x="0px" y="0px"
	 viewBox="0 0 82 77" style="enable-background:new 0 0 82 77;" xml:space="preserve">
<style type="text/css">
	.st0{fill:#E32F36;}
	.st1{fill:#FFFFFF;}
	.st2{fill:#EC1C24;}
	.st3{fill:#404041;}
</style>
<g>
	<path class="st0" d="M60.22,4.87H30.43c-0.88,0-1.6,0.72-1.6,1.6c0,0.88,0.72,1.6,1.6,1.6h29.79c0.88,0,1.6-0.72,1.6-1.6
		C61.82,5.59,61.1,4.87,60.22,4.87z"/>
	<path class="st0" d="M23.71,5.86c-0.04-0.1-0.09-0.19-0.15-0.28c-0.06-0.09-0.13-0.17-0.2-0.24s-0.16-0.14-0.24-0.2
		c-0.09-0.06-0.18-0.11-0.28-0.15c-0.1-0.04-0.2-0.07-0.3-0.09c-0.21-0.04-0.42-0.04-0.63,0c-0.1,0.02-0.2,0.05-0.3,0.09
		c-0.1,0.04-0.19,0.09-0.28,0.15c-0.09,0.06-0.17,0.13-0.24,0.2c-0.07,0.07-0.14,0.16-0.2,0.24c-0.06,0.09-0.11,0.18-0.15,0.28
		c-0.04,0.1-0.07,0.2-0.09,0.3c-0.02,0.1-0.03,0.21-0.03,0.31s0.01,0.21,0.03,0.31c0.02,0.1,0.05,0.2,0.09,0.3
		c0.04,0.1,0.09,0.19,0.15,0.28c0.06,0.09,0.13,0.17,0.2,0.24c0.07,0.07,0.16,0.14,0.24,0.2c0.09,0.06,0.18,0.11,0.28,0.15
		c0.1,0.04,0.2,0.07,0.3,0.09c0.1,0.02,0.21,0.03,0.31,0.03s0.21-0.01,0.31-0.03c0.1-0.02,0.2-0.05,0.3-0.09
		c0.1-0.04,0.19-0.09,0.28-0.15c0.09-0.06,0.17-0.12,0.24-0.2s0.14-0.16,0.2-0.24c0.06-0.09,0.11-0.18,0.15-0.28
		c0.04-0.1,0.07-0.2,0.09-0.3c0.02-0.1,0.03-0.21,0.03-0.31s-0.01-0.21-0.03-0.31C23.78,6.06,23.75,5.95,23.71,5.86z"/>
	<path class="st0" d="M6.92,17.41c0.09,0.06,0.18,0.11,0.28,0.15c0.1,0.04,0.2,0.07,0.3,0.09c0.1,0.02,0.21,0.03,0.31,0.03
		s0.21-0.01,0.31-0.03c0.1-0.02,0.2-0.05,0.3-0.09c0.1-0.04,0.19-0.09,0.28-0.15c0.09-0.06,0.17-0.12,0.24-0.2
		c0.3-0.3,0.47-0.71,0.47-1.13c0-0.1-0.01-0.21-0.03-0.31c-0.02-0.1-0.05-0.2-0.09-0.3c-0.04-0.1-0.09-0.19-0.15-0.28
		c-0.06-0.09-0.12-0.17-0.2-0.24c-0.07-0.07-0.16-0.14-0.24-0.2c-0.09-0.06-0.18-0.11-0.28-0.15c-0.1-0.04-0.2-0.07-0.3-0.09
		c-0.21-0.04-0.42-0.04-0.63,0c-0.1,0.02-0.2,0.05-0.3,0.09c-0.1,0.04-0.19,0.09-0.28,0.15c-0.09,0.06-0.17,0.13-0.24,0.2
		c-0.07,0.07-0.14,0.16-0.2,0.24c-0.06,0.09-0.11,0.18-0.15,0.28c-0.04,0.1-0.07,0.2-0.09,0.3c-0.02,0.1-0.03,0.21-0.03,0.31
		c0,0.42,0.17,0.83,0.47,1.13C6.76,17.29,6.84,17.35,6.92,17.41z"/>
	<path class="st0" d="M34.83,21.34c0.04,0.1,0.09,0.19,0.15,0.28c0.06,0.09,0.12,0.17,0.2,0.24s0.16,0.14,0.24,0.2
		c0.09,0.06,0.18,0.11,0.28,0.15c0.1,0.04,0.2,0.07,0.3,0.09c0.1,0.02,0.21,0.03,0.31,0.03c0.1,0,0.21-0.01,0.31-0.03
		c0.1-0.02,0.2-0.05,0.3-0.09c0.1-0.04,0.19-0.09,0.28-0.15c0.09-0.06,0.17-0.12,0.24-0.2c0.08-0.07,0.14-0.16,0.2-0.24
		c0.06-0.09,0.11-0.18,0.15-0.28c0.04-0.1,0.07-0.2,0.09-0.3c0.02-0.1,0.03-0.21,0.03-0.31s-0.01-0.21-0.03-0.31
		c-0.02-0.1-0.05-0.2-0.09-0.3c-0.04-0.1-0.09-0.19-0.15-0.28c-0.06-0.09-0.12-0.17-0.2-0.24c-0.07-0.07-0.16-0.14-0.24-0.2
		c-0.09-0.06-0.18-0.11-0.28-0.15c-0.1-0.04-0.2-0.07-0.3-0.09c-0.21-0.04-0.42-0.04-0.63,0c-0.1,0.02-0.2,0.05-0.3,0.09
		c-0.1,0.04-0.19,0.09-0.28,0.15c-0.09,0.06-0.17,0.13-0.24,0.2s-0.14,0.16-0.2,0.24c-0.06,0.09-0.11,0.18-0.15,0.28
		c-0.04,0.1-0.07,0.2-0.09,0.3c-0.02,0.1-0.03,0.21-0.03,0.31s0.01,0.21,0.03,0.31C34.76,21.14,34.79,21.24,34.83,21.34z"/>
	<path class="st0" d="M39.52,21.34c0.04,0.1,0.09,0.19,0.15,0.28c0.06,0.09,0.13,0.17,0.2,0.24s0.16,0.14,0.24,0.2
		c0.09,0.06,0.18,0.11,0.28,0.15c0.1,0.04,0.2,0.07,0.3,0.09c0.1,0.02,0.21,0.03,0.31,0.03c0.42,0,0.83-0.17,1.13-0.47
		s0.47-0.71,0.47-1.13c0-0.1-0.01-0.21-0.03-0.31c-0.02-0.1-0.05-0.2-0.09-0.3c-0.04-0.1-0.09-0.19-0.15-0.28
		c-0.06-0.09-0.12-0.17-0.2-0.24c-0.37-0.37-0.93-0.54-1.44-0.44c-0.1,0.02-0.2,0.05-0.3,0.09c-0.1,0.04-0.19,0.09-0.28,0.15
		c-0.09,0.06-0.17,0.13-0.24,0.2s-0.14,0.16-0.2,0.24c-0.06,0.09-0.11,0.18-0.15,0.28c-0.04,0.1-0.07,0.2-0.09,0.3
		c-0.02,0.1-0.03,0.21-0.03,0.31s0.01,0.21,0.03,0.31C39.45,21.14,39.48,21.24,39.52,21.34z"/>
	<path class="st0" d="M44.21,21.34c0.04,0.1,0.09,0.19,0.15,0.28c0.06,0.09,0.12,0.17,0.2,0.24s0.16,0.14,0.25,0.2
		c0.09,0.06,0.18,0.11,0.28,0.15c0.1,0.04,0.2,0.07,0.3,0.09c0.1,0.02,0.21,0.03,0.31,0.03c0.1,0,0.21-0.01,0.31-0.03
		c0.1-0.02,0.2-0.05,0.3-0.09c0.1-0.04,0.19-0.09,0.28-0.15c0.09-0.06,0.17-0.12,0.24-0.2c0.07-0.07,0.14-0.16,0.2-0.24
		c0.06-0.09,0.11-0.18,0.15-0.28c0.04-0.1,0.07-0.2,0.09-0.3c0.02-0.1,0.03-0.21,0.03-0.31s-0.01-0.21-0.03-0.31
		c-0.02-0.1-0.05-0.2-0.09-0.3c-0.04-0.1-0.09-0.19-0.15-0.28c-0.06-0.09-0.13-0.17-0.2-0.24c-0.07-0.08-0.16-0.14-0.24-0.2
		c-0.09-0.06-0.18-0.11-0.28-0.15c-0.1-0.04-0.2-0.07-0.3-0.09c-0.21-0.04-0.42-0.04-0.63,0c-0.1,0.02-0.2,0.05-0.3,0.09
		c-0.1,0.04-0.19,0.09-0.28,0.15c-0.09,0.06-0.17,0.13-0.25,0.2c-0.07,0.07-0.14,0.16-0.2,0.24c-0.06,0.09-0.11,0.18-0.15,0.28
		c-0.04,0.1-0.07,0.2-0.09,0.3c-0.02,0.1-0.03,0.21-0.03,0.31s0.01,0.21,0.03,0.31C44.14,21.14,44.17,21.24,44.21,21.34z"/>
	<path class="st0" d="M41.64,64.14h17.62c0.88,0,1.6-0.72,1.6-1.6c0-0.88-0.72-1.6-1.6-1.6H41.64c-0.88,0-1.6,0.72-1.6,1.6
		C40.04,63.42,40.76,64.14,41.64,64.14z"/>
	<path class="st0" d="M41.64,70.54h17.62c0.88,0,1.6-0.72,1.6-1.6c0-0.88-0.72-1.6-1.6-1.6H41.64c-0.88,0-1.6,0.72-1.6,1.6
		C40.04,69.83,40.76,70.54,41.64,70.54z"/>
	<path class="st0" d="M28.03,60.93c-2.65,0-4.8,2.16-4.8,4.8s2.16,4.8,4.8,4.8s4.8-2.16,4.8-4.8S30.68,60.93,28.03,60.93z
		 M28.03,67.34c-0.88,0-1.6-0.72-1.6-1.6s0.72-1.6,1.6-1.6s1.6,0.72,1.6,1.6S28.91,67.34,28.03,67.34z"/>
	<path class="st0" d="M20.82,38.51h6.41c0.88,0,1.6-0.72,1.6-1.6c0-0.88-0.72-1.6-1.6-1.6h-6.41c-0.88,0-1.6,0.72-1.6,1.6
		C19.22,37.8,19.94,38.51,20.82,38.51z"/>
	<path class="st0" d="M20.82,44.91h12.81c0.88,0,1.6-0.72,1.6-1.6c0-0.88-0.72-1.6-1.6-1.6H20.82c-0.88,0-1.6,0.72-1.6,1.6
		C19.22,44.19,19.94,44.91,20.82,44.91z"/>
	<path class="st0" d="M32.03,49.72c0-0.88-0.72-1.6-1.6-1.6h-9.61c-0.88,0-1.6,0.72-1.6,1.6c0,0.88,0.72,1.6,1.6,1.6h9.61
		C31.31,51.33,32.03,50.61,32.03,49.72z"/>
	<path class="st0" d="M78.48,9.66H68.23V3.57c0-1.94-1.58-3.52-3.52-3.52H17.3c-1.94,0-3.52,1.58-3.52,3.52v6.09H3.52
		C1.58,9.66,0,11.24,0,13.18v53.84c0,1.94,1.58,3.52,3.52,3.52h10.25v2.88c0,1.94,1.58,3.52,3.52,3.52H64.7
		c1.94,0,3.52-1.58,3.52-3.52v-2.88h10.25c1.94,0,3.52-1.58,3.52-3.52V13.18C82,11.24,80.42,9.66,78.48,9.66z M13.77,67.34H3.52
		c-0.17,0-0.32-0.15-0.32-0.32V22.47h10.57V67.34z M13.77,19.27H3.2v-6.09c0-0.17,0.15-0.32,0.32-0.32h10.25V19.27z M65.02,73.43
		c0,0.17-0.15,0.32-0.32,0.32H17.3c-0.17,0-0.32-0.15-0.32-0.32V57.74h3.46c0.88,0,1.6-0.72,1.6-1.6c0-0.88-0.72-1.6-1.6-1.6h-3.46
		V32.11H39.4v22.44h-6.15c-0.88,0-1.6,0.72-1.6,1.6c0,0.88,0.72,1.6,1.6,1.6h31.78V73.43z M53.63,40.88l-8.77-8.77h17.32
		L53.63,40.88z M53.66,45.44l9.1,9.1H44.79L53.66,45.44z M51.4,43.17l-8.79,9.02V34.37L51.4,43.17z M65.02,52.28l-9.13-9.13
		l9.13-9.36V52.28z M65.02,28.9H41c0,0,0,0,0,0H16.98V12.86h48.05V28.9z M65.02,9.66H16.98V3.57c0-0.17,0.15-0.32,0.32-0.32H64.7
		c0.17,0,0.32,0.15,0.32,0.32V9.66z M78.8,67.02c0,0.17-0.15,0.32-0.32,0.32H68.23v-11.2c0,0,0,0,0,0V22.47H78.8V67.02z M78.8,19.27
		H68.23v-1.59h5.77c0.88,0,1.6-0.72,1.6-1.6c0-0.88-0.72-1.6-1.6-1.6h-5.77v-1.62h10.25c0.17,0,0.32,0.15,0.32,0.32V19.27z"/>
	<path class="st0" d="M27.4,54.64c-0.1-0.04-0.2-0.07-0.3-0.09c-0.21-0.04-0.42-0.04-0.62,0c-0.1,0.02-0.2,0.05-0.3,0.09
		c-0.1,0.04-0.19,0.09-0.28,0.15c-0.09,0.06-0.17,0.13-0.24,0.2c-0.3,0.3-0.47,0.71-0.47,1.13c0,0.1,0.01,0.21,0.03,0.31
		c0.02,0.1,0.05,0.2,0.09,0.3c0.04,0.1,0.09,0.19,0.15,0.28c0.06,0.09,0.13,0.17,0.2,0.24c0.07,0.07,0.16,0.14,0.24,0.2
		c0.09,0.06,0.18,0.11,0.28,0.15c0.1,0.04,0.2,0.07,0.3,0.09s0.21,0.03,0.31,0.03c0.1,0,0.21-0.01,0.31-0.03
		c0.1-0.02,0.2-0.05,0.3-0.09c0.1-0.04,0.19-0.09,0.28-0.15c0.09-0.06,0.17-0.13,0.24-0.2s0.14-0.16,0.2-0.24
		c0.06-0.09,0.11-0.18,0.15-0.28c0.04-0.1,0.07-0.2,0.09-0.3c0.02-0.1,0.03-0.21,0.03-0.31c0-0.42-0.17-0.83-0.47-1.13
		c-0.07-0.07-0.16-0.14-0.24-0.2C27.59,54.73,27.49,54.68,27.4,54.64z"/>
</g>
</svg>
