<?xml version="1.0" encoding="utf-8"?>
<!-- Generator: Adobe Illustrator 24.0.0, SVG Export Plug-In . SVG Version: 6.00 Build 0)  -->
<svg version="1.1" id="Layer_1" xmlns="http://www.w3.org/2000/svg" xmlns:xlink="http://www.w3.org/1999/xlink" x="0px" y="0px"
	 viewBox="0 0 50 50" style="enable-background:new 0 0 50 50;" xml:space="preserve">
<style type="text/css">
	.st0{fill:#E32F36;}
	.st1{fill:#FFFFFF;}
</style>
<circle class="st0" cx="25" cy="25" r="25"/>
<g>
	<path class="st1" d="M32.3,29.5c-0.9-0.9-2.1-0.9-3,0c-0.7,0.7-1.4,1.4-2.1,2.1c-0.2,0.2-0.3,0.2-0.6,0.1c-0.4-0.2-0.9-0.4-1.4-0.7
		c-2-1.3-3.7-2.9-5.2-4.7c-0.7-0.9-1.4-1.9-1.9-3c-0.1-0.2-0.1-0.4,0.1-0.5c0.7-0.7,1.4-1.4,2.1-2c0.9-1,0.9-2.1,0-3
		c-0.5-0.5-1.1-1.1-1.6-1.6c-0.6-0.6-1.1-1.1-1.7-1.7c-0.9-0.9-2.1-0.9-3,0c-0.7,0.7-1.4,1.4-2.1,2.1c-0.7,0.6-1,1.4-1.1,2.3
		c-0.1,1.5,0.2,2.8,0.7,4.2c1,2.8,2.6,5.2,4.5,7.5c2.6,3,5.6,5.4,9.2,7.2c1.6,0.8,3.3,1.4,5.1,1.5c1.2,0.1,2.3-0.2,3.2-1.2
		c0.6-0.7,1.3-1.3,1.9-1.9c0.9-0.9,0.9-2.1,0-3C34.5,31.7,33.4,30.6,32.3,29.5z"/>
	<path class="st1" d="M32.2,24.7L32.2,24.7c0.6-0.1,1.1-0.8,0.9-1.4c-0.5-1.5-1.3-2.9-2.4-4c-1.2-1.2-2.7-2.1-4.3-2.5
		c-0.6-0.2-1.3,0.3-1.4,0.9l0,0c-0.1,0.5,0.3,1,0.8,1.2c1.2,0.3,2.4,1,3.3,1.9c0.9,0.9,1.5,1.9,1.9,3.1
		C31.1,24.5,31.6,24.8,32.2,24.7z"/>
	<path class="st1" d="M34.5,15.5c-2.2-2.2-4.9-3.7-7.9-4.3c-0.6-0.1-1.2,0.3-1.3,0.9l0,0c-0.1,0.6,0.3,1.1,0.8,1.2
		c2.6,0.6,5,1.8,6.9,3.7c1.8,1.8,3.1,4,3.7,6.5c0.1,0.5,0.7,0.9,1.2,0.8l0,0c0.6-0.1,1-0.7,0.9-1.4C38.1,20.2,36.6,17.6,34.5,15.5z"
		/>
</g>
</svg>
